<svg xmlns="http://www.w3.org/2000/svg" fill="#61777f" viewBox="0 0 1000 1012"><svg viewBox="0 0 244 247" data-background-color="#ffffff" xmlns="http://www.w3.org/2000/svg" xmlns:xlink="http://www.w3.org/1999/xlink" transform="translate(.884 .41)"><svg viewBox="0 0 244.431 247.2" transform="translate(-.216 -.1)"><svg/><svg viewBox="0 0 244.431 247.2"><svg viewBox="0 0 244.431 117.76" transform="translate(0 64.72)"><svg viewBox="0 0 244.431 117.76"><svg viewBox="0 0 244.431 117.76"><svg viewBox="0 0 244.431 117.76"><svg viewBox="0 0 244.431 117.76"><svg viewBox="0 0 244.431 117.76"><svg viewBox="3.85 -33.7 69.95 33.7"><path d="M7.9-14.2V0H3.85v-33.7h5.1l8.45 14.2 8.55 14.6q-.2-4.85-.2-14.55V-33.7h4.05V0h-5.1l-8.45-14.1q-2.55-4.25-4.7-7.93Q9.4-25.7 8.5-27.3l-.85-1.55q.25 5.2.25 14.65zm39.85-19.5v25.05Q47.75 0 39.9 0q-2.8 0-4.75-1.1V-5q2 1.3 4.2 1.3 4.35 0 4.35-4.6v-25.4h4.05zM73.8-3.65V0H55.4v-33.7h4.05v30.05H73.8z" class="prefix__wordmark-text-0"/></svg></svg></svg></svg></svg></svg></svg><path d="M0 58.72V1h244.431v57.72h-10.619v-47.1H10.62v47.1H0m0 129.76v57.72h244.431v-57.72h-10.619v47.1H10.62v-47.1H0" stroke="transparent"/></svg></svg></svg></svg>